<svg xmlns="http://www.w3.org/2000/svg" viewBox="412 874 1428 502" version="1.1">
	<path d="M 742.857 887.446 C 597.034 953.614, 497.509 1023.873, 451.683 1093 C 433.811 1119.959, 421.744 1153.558, 417.932 1186.974 C 416.348 1200.860, 417.269 1248.865, 419.468 1267 C 423.550 1300.671, 431.266 1325.722, 442.777 1342.672 C 455.141 1360.879, 477.219 1372, 501 1372 C 525.368 1372, 547.642 1361.451, 569.535 1339.543 C 591.150 1317.913, 610.848 1288.153, 640.225 1232.750 C 646.276 1221.338, 651.359 1212, 651.520 1212 C 651.681 1212, 651.623 1212.787, 651.390 1213.750 C 650.324 1218.169, 624.047 1360.378, 624.259 1360.579 C 624.684 1360.980, 750.159 1371.177, 750.421 1370.832 C 750.764 1370.380, 794.919 1099.582, 794.686 1099.366 C 794.255 1098.967, 678.541 1087.125, 678.219 1087.447 C 678.025 1087.642, 676.054 1095.833, 673.840 1105.651 C 657.746 1177.010, 640.602 1212.467, 613.493 1230.461 C 594.322 1243.186, 562.820 1248.996, 513 1248.995 C 475.415 1248.994, 455.521 1243.916, 444.085 1231.403 C 437.735 1224.454, 435.530 1217.810, 436.248 1207.781 C 437.422 1191.370, 449.862 1176.027, 476 1158.749 C 507.383 1138.004, 541.261 1121.392, 657 1069.998 C 677.075 1061.084, 702.725 1049.509, 714 1044.276 C 744.832 1029.966, 810.995 997.272, 811.033 996.328 C 811.085 995.018, 764.557 878.004, 764 878.043 C 763.725 878.063, 754.211 882.294, 742.857 887.446 M 1179.830 913.750 L 1173.265 935.500 1162.694 936.368 L 1152.123 937.236 1150.561 941.138 C 1147.836 947.949, 1147.895 948, 1158.441 948 C 1163.634 948, 1168.102 948.356, 1168.371 948.792 C 1168.640 949.227, 1160.773 976.340, 1150.887 1009.042 L 1132.914 1068.500 1135.408 1070.660 C 1138.629 1073.450, 1147.845 1076.924, 1155.655 1078.294 C 1164.318 1079.814, 1168.630 1078.327, 1175.510 1071.447 C 1180.734 1066.223, 1202 1035.457, 1202 1033.123 C 1202 1030.155, 1199.110 1033.252, 1187.883 1048.250 C 1181.193 1057.188, 1175.441 1064.818, 1175.103 1065.207 C 1174.452 1065.953, 1158.272 1064.606, 1157.400 1063.733 C 1157.120 1063.453, 1165.110 1037.309, 1175.157 1005.635 L 1193.422 948.045 1210.390 947.773 L 1227.358 947.500 1228.015 945 C 1228.376 943.625, 1228.959 941.038, 1229.311 939.250 L 1229.950 936 1213.975 936 C 1203.099 936, 1198 935.652, 1198 934.909 C 1198 934.308, 1200.925 924.624, 1204.500 913.387 C 1208.075 902.150, 1211 892.742, 1211 892.478 C 1211 892.215, 1205.464 892, 1198.697 892 L 1186.394 892 1179.830 913.750 M 988.919 946.738 L 983.554 962.500 982.851 958 C 982.465 955.525, 982.112 951.700, 982.069 949.500 C 981.854 938.748, 977.831 933, 970.520 933 C 945.645 933, 911.679 970.854, 896.905 1015.042 C 885.675 1048.631, 889.102 1073.409, 905.619 1078.033 C 921.901 1082.592, 935.273 1070.427, 958.420 1030 C 966.487 1015.910, 969.118 1012.071, 966.643 1018 C 963.818 1024.770, 955.038 1055.001, 953.987 1061.580 C 952.667 1069.846, 953.659 1071.707, 961.401 1075.495 C 968.218 1078.830, 973.635 1079.606, 978.621 1077.960 C 986.336 1075.414, 997.372 1062.237, 1008.821 1041.903 C 1011.682 1036.821, 1011.978 1035, 1009.943 1035 C 1009.545 1035, 1004.558 1041.796, 998.860 1050.102 L 988.500 1065.205 982.671 1064.690 C 979.465 1064.407, 976.579 1063.913, 976.258 1063.591 C 975.366 1062.700, 993.908 1002.458, 1006.127 966.544 C 1012.107 948.968, 1017 934.251, 1017 933.839 C 1017 932.914, 1012.914 932.271, 1002.392 931.540 L 994.284 930.977 988.919 946.738 M 1582.230 936.233 C 1581.171 939.130, 1578.548 946.675, 1576.402 953 L 1572.500 964.500 1571.870 953.500 C 1570.928 937.045, 1568.617 932.975, 1560.250 933.033 C 1549.324 933.108, 1537.443 939.652, 1523.998 953 C 1508.050 968.833, 1494.647 990.870, 1486.960 1013.895 C 1475.386 1048.566, 1478.594 1073.582, 1495.187 1078.050 C 1511.786 1082.520, 1524.123 1071.270, 1548.548 1029.389 C 1553.324 1021.200, 1556.980 1015.258, 1556.672 1016.184 C 1548.638 1040.391, 1543.019 1061.110, 1543.007 1066.576 C 1542.990 1074.253, 1560.078 1081.501, 1569.205 1077.688 C 1571.226 1076.843, 1574.967 1074.228, 1577.519 1071.876 C 1584.565 1065.381, 1602.539 1037.206, 1600.767 1035.433 C 1599.551 1034.218, 1597.771 1036.382, 1587.967 1050.996 L 1578.500 1065.108 1572.108 1064.578 C 1568.592 1064.287, 1565.585 1063.919, 1565.427 1063.760 C 1564.805 1063.139, 1587.409 990.900, 1596.931 963.077 C 1602.469 946.894, 1607 933.527, 1607 933.372 C 1607 932.896, 1600.890 932.131, 1592.328 931.535 L 1584.156 930.966 1582.230 936.233 M 1044.140 935.022 C 1036.221 938.616, 1023.403 954.153, 1013.761 971.846 C 1010.796 977.286, 1010.393 980.111, 1012.794 978.627 C 1013.304 978.312, 1018.532 971.273, 1024.413 962.984 L 1035.105 947.913 1041.303 948.588 C 1044.711 948.959, 1047.779 949.419, 1048.119 949.610 C 1049.050 950.131, 1028.137 1025.195, 1019.733 1051.500 L 1012.384 1074.500 1014.823 1075.199 C 1016.164 1075.583, 1021.341 1076.033, 1026.326 1076.199 L 1035.390 1076.500 1039.564 1062 C 1047.822 1033.312, 1076.293 976.121, 1092.441 955.780 C 1098.371 948.310, 1101.991 946.381, 1107.166 947.932 C 1113.036 949.690, 1114.299 952.370, 1113.023 960.354 C 1111.865 967.607, 1110.201 972.341, 1097.683 1004 C 1085.715 1034.269, 1076.065 1061.246, 1075.357 1066.412 C 1074.775 1070.661, 1074.885 1070.895, 1078.627 1073.366 C 1083.375 1076.500, 1090.266 1079, 1094.158 1079 C 1102.112 1079, 1111.501 1071.096, 1120.884 1056.500 C 1131.759 1039.583, 1133.903 1035, 1130.943 1035 C 1130.545 1035, 1125.576 1041.750, 1119.901 1050 L 1109.582 1065 1105.541 1064.882 C 1103.318 1064.817, 1100.323 1064.479, 1098.885 1064.132 L 1096.271 1063.500 1110.682 1029 C 1133.818 973.613, 1139.336 956.676, 1137.034 948.125 C 1135.478 942.348, 1129.997 936.528, 1124.276 934.579 C 1118.497 932.609, 1110.020 932.547, 1105.489 934.440 C 1099.993 936.736, 1092.353 944.642, 1084.994 955.648 C 1078.506 965.350, 1062.417 996.270, 1052.962 1017.206 C 1050.551 1022.544, 1048.413 1026.746, 1048.211 1026.544 C 1048.008 1026.342, 1049.413 1021.299, 1051.333 1015.338 C 1073.071 947.830, 1071.964 951.695, 1070.834 947.245 C 1069.615 942.442, 1064.246 936.419, 1059.368 934.380 C 1054.773 932.461, 1049.275 932.692, 1044.140 935.022 M 1268 934.830 C 1243.984 942.837, 1223.287 966.820, 1212.191 999.500 C 1200.228 1034.732, 1205.304 1064.545, 1225.136 1075.529 C 1229.928 1078.183, 1231.407 1078.496, 1239 1078.464 C 1246.540 1078.431, 1248.276 1078.052, 1254.364 1075.108 C 1263.073 1070.897, 1272.842 1061.419, 1280.244 1050 C 1285.959 1041.183, 1291 1031.826, 1291 1030.033 C 1291 1027.068, 1287.921 1029.974, 1283.120 1037.470 C 1272.754 1053.653, 1262.783 1061.792, 1252.250 1062.667 C 1236.912 1063.942, 1229.890 1051.571, 1231.437 1026 C 1231.996 1016.777, 1234.105 1003.437, 1235.137 1002.597 C 1235.337 1002.435, 1239.550 1001.516, 1244.500 1000.555 C 1256.994 998.129, 1275.449 991.908, 1285.193 986.839 C 1294.379 982.060, 1303.541 973.739, 1306.486 967.500 C 1308.894 962.397, 1309.591 953.322, 1307.955 948.356 C 1306.079 942.663, 1303.371 939.522, 1297.632 936.381 C 1293.197 933.955, 1291.210 933.534, 1283 933.285 C 1275.847 933.068, 1272.141 933.450, 1268 934.830 M 1336.208 934.509 C 1331.147 936.707, 1321.659 946.350, 1315.172 955.888 C 1308.534 965.648, 1302 976.642, 1302 978.054 C 1302 981.289, 1305.830 977.142, 1315.490 963.445 L 1326.462 947.890 1332.981 948.568 C 1336.566 948.941, 1339.639 949.368, 1339.810 949.516 C 1340.529 950.143, 1320.198 1022.668, 1312.381 1047.356 C 1307.705 1062.127, 1304.059 1074.393, 1304.280 1074.613 C 1304.851 1075.184, 1318.805 1076.932, 1323.083 1076.969 L 1326.667 1077 1331.002 1062.750 C 1337.273 1042.134, 1358.832 994.145, 1373.261 968.682 C 1380.242 956.361, 1388.274 947, 1391.864 947 C 1393.123 947, 1395.518 948.364, 1397.186 950.032 C 1399.969 952.815, 1400.161 953.439, 1399.529 957.652 C 1398.379 965.325, 1391.623 987.430, 1376.863 1031.813 C 1369.124 1055.084, 1363.016 1074.349, 1363.289 1074.623 C 1364.246 1075.580, 1384.238 1077.161, 1384.933 1076.334 C 1385.318 1075.875, 1387.525 1069.332, 1389.836 1061.794 C 1394.390 1046.938, 1403.184 1026.524, 1416.895 998.975 C 1434.889 962.824, 1446.042 947, 1453.527 947 C 1454.422 947, 1456.498 948.344, 1458.140 949.986 C 1460.882 952.728, 1461.073 953.364, 1460.472 957.736 C 1459.327 966.067, 1458.040 969.915, 1447.001 998 C 1432.614 1034.602, 1423.095 1061.028, 1422.357 1066.412 C 1421.775 1070.661, 1421.885 1070.895, 1425.627 1073.366 C 1430.375 1076.500, 1437.266 1079, 1441.158 1079 C 1449.112 1079, 1458.501 1071.096, 1467.884 1056.500 C 1478.759 1039.583, 1480.903 1035, 1477.943 1035 C 1477.545 1035, 1472.576 1041.750, 1466.901 1050 L 1456.582 1065 1452.541 1064.882 C 1450.318 1064.817, 1447.323 1064.479, 1445.885 1064.132 L 1443.271 1063.500 1457.682 1029 C 1481.151 972.815, 1486.206 957.194, 1483.955 947.811 C 1481.692 938.378, 1474.389 933.062, 1463.635 933.022 C 1446.864 932.959, 1435.472 948.330, 1407.523 1008.729 C 1402.630 1019.306, 1398.503 1027.837, 1398.354 1027.687 C 1398.205 1027.538, 1400.329 1021.585, 1403.075 1014.458 C 1411.433 992.763, 1421.893 960.829, 1422.588 954.884 C 1424.131 941.674, 1416.392 933.044, 1403 933.044 C 1388.607 933.044, 1379.543 943.521, 1361.079 981.500 C 1356.266 991.400, 1349.458 1005.891, 1345.949 1013.701 C 1342.440 1021.512, 1339.412 1027.746, 1339.220 1027.553 C 1339.028 1027.361, 1344.300 1010.364, 1350.935 989.782 C 1357.571 969.201, 1362.990 951.492, 1362.978 950.430 C 1362.945 947.496, 1359.558 940.770, 1356.868 938.298 C 1351.424 933.293, 1342.692 931.691, 1336.208 934.509 M 1633 935.581 C 1624.424 940.453, 1616.959 949.201, 1606.461 966.680 C 1600.633 976.383, 1599.667 979, 1601.915 979 C 1602.353 979, 1607.614 972.019, 1613.606 963.486 L 1624.500 947.972 1631 948.609 C 1634.575 948.960, 1637.683 949.412, 1637.907 949.614 C 1638.686 950.316, 1617.944 1024.643, 1610.043 1049.465 C 1605.672 1063.195, 1602.258 1074.591, 1602.456 1074.789 C 1603.102 1075.436, 1624.024 1077.309, 1624.564 1076.769 C 1624.854 1076.480, 1627.059 1069.551, 1629.466 1061.371 C 1639.570 1027.030, 1671.875 964.588, 1686.525 951.084 C 1691.222 946.754, 1692.804 946.339, 1697.872 948.105 C 1706.124 950.982, 1704.990 959.491, 1692.034 991.915 C 1681.096 1019.290, 1668.461 1053.362, 1666.137 1061.749 C 1663.784 1070.241, 1664.395 1071.646, 1672.148 1075.575 C 1682.526 1080.834, 1689.938 1079.785, 1698.561 1071.837 C 1705.798 1065.166, 1723.577 1037.243, 1721.750 1035.417 C 1720.561 1034.228, 1718.830 1036.340, 1709 1050.977 L 1699.500 1065.122 1693.108 1064.585 C 1689.592 1064.290, 1686.560 1063.893, 1686.369 1063.703 C 1686.179 1063.512, 1693.001 1046.588, 1701.528 1026.093 C 1722.150 976.530, 1726.432 964.055, 1726.471 953.426 C 1726.497 946.045, 1726.252 945.026, 1723.617 941.568 C 1717.964 934.150, 1704.390 930.721, 1695.457 934.453 C 1682.859 939.717, 1666.410 965.219, 1643.981 1014.261 C 1640.520 1021.829, 1637.548 1027.882, 1637.378 1027.712 C 1637.208 1027.541, 1642.446 1010.774, 1649.019 990.451 C 1655.592 970.128, 1660.976 952.292, 1660.985 950.815 C 1661.035 941.864, 1651.462 932.985, 1641.790 933.012 C 1639.047 933.020, 1635.878 933.946, 1633 935.581 M 1779.942 935.287 C 1761.314 941.638, 1745.307 957.163, 1734.488 979.374 C 1727.185 994.366, 1724.025 1006.839, 1723.308 1023.500 C 1722.343 1045.936, 1726.799 1061.138, 1737.036 1070.343 C 1742.896 1075.611, 1748.840 1077.910, 1758.636 1078.698 C 1787.710 1081.035, 1819.002 1051.970, 1829.481 1012.893 C 1836.067 988.333, 1834.286 962.303, 1825.018 947.689 C 1816.841 934.795, 1797.221 929.397, 1779.942 935.287 M 1273.357 937.091 C 1265.650 939.324, 1254.719 952.821, 1246.558 970.180 C 1241.943 979.995, 1235.598 997.931, 1236.441 998.775 C 1237.435 999.769, 1251.266 994.619, 1257.036 991.107 C 1266.018 985.639, 1271.190 980.876, 1276.327 973.341 C 1282.193 964.737, 1285 956.852, 1285 948.975 C 1285 942.012, 1283.106 937.529, 1279.790 936.641 C 1277.139 935.931, 1277.433 935.910, 1273.357 937.091 M 1788.270 938.095 C 1773.984 945.167, 1759.010 974.593, 1751.283 1010.781 C 1748.854 1022.159, 1748.564 1025.609, 1748.534 1043.500 C 1748.502 1062.059, 1748.659 1063.845, 1750.709 1068.284 C 1752.381 1071.906, 1753.802 1073.437, 1756.562 1074.590 C 1762.888 1077.234, 1768.933 1074.950, 1776.756 1066.960 C 1794.520 1048.819, 1810.397 996.551, 1808.638 962 C 1807.920 947.892, 1806.744 943.544, 1802.497 939.297 C 1798.532 935.332, 1794.535 934.994, 1788.270 938.095 M 946.831 948.469 C 933.495 957.531, 919.113 1001.353, 916.464 1041 C 915.899 1049.456, 916.067 1052.230, 917.329 1055.248 C 921.532 1065.300, 931.094 1061.692, 943.280 1045.455 C 955.075 1029.739, 974.983 994.499, 977.583 984.735 C 981.670 969.383, 975.802 955.067, 962.759 948.567 C 956.220 945.309, 951.524 945.280, 946.831 948.469 M 1537.435 947.877 C 1525.157 955.364, 1512.484 989.223, 1507.446 1028 C 1506.553 1034.875, 1505.976 1043.953, 1506.165 1048.174 C 1506.454 1054.642, 1506.888 1056.252, 1508.928 1058.424 C 1513.393 1063.176, 1518.360 1061.499, 1527.167 1052.264 C 1535.705 1043.312, 1550.415 1020.003, 1561.991 997.085 C 1571.485 978.287, 1571.196 966.847, 1560.944 955.629 C 1552.758 946.672, 1544.095 943.815, 1537.435 947.877 M 1094.109 1146.565 C 1082.344 1148.389, 1072.293 1150.307, 1071.773 1150.827 C 1071.180 1151.420, 1074.565 1152.039, 1080.866 1152.490 C 1086.386 1152.886, 1091.645 1153.751, 1092.551 1154.413 C 1094.042 1155.504, 1091.680 1164.947, 1067.514 1254.475 C 1046.062 1333.953, 1041.029 1353.769, 1041.845 1355.558 C 1043.141 1358.404, 1052.693 1363.098, 1058.526 1363.756 C 1070.271 1365.080, 1078.086 1357.454, 1093.980 1329.163 C 1097.559 1322.792, 1098.900 1319.500, 1098.202 1318.802 C 1097.503 1318.103, 1093.624 1323.095, 1085.992 1334.512 L 1074.807 1351.245 1070.232 1350.618 C 1067.717 1350.274, 1065.443 1349.777, 1065.181 1349.515 C 1064.919 1349.252, 1077.434 1303.467, 1092.993 1247.769 C 1108.552 1192.071, 1121.496 1145.713, 1121.758 1144.750 C 1122.403 1142.374, 1120.196 1142.518, 1094.109 1146.565 M 1146 1146.557 C 1134.175 1148.405, 1124.162 1149.936, 1123.750 1149.959 C 1123.338 1149.981, 1123 1150.402, 1123 1150.894 C 1123 1151.385, 1127.162 1152.112, 1132.250 1152.508 C 1141.858 1153.256, 1145 1154.195, 1145 1156.320 C 1145 1157.007, 1133.057 1201.836, 1118.461 1255.939 L 1091.921 1354.308 1094.645 1357.151 C 1097.945 1360.595, 1106.611 1364, 1112.077 1364 C 1116.906 1364, 1122.435 1361.332, 1126.935 1356.830 C 1130.645 1353.119, 1138.672 1341.157, 1144.604 1330.500 C 1147.845 1324.676, 1148.542 1323.920, 1148.751 1326 C 1149.815 1336.584, 1154.247 1347.795, 1159.924 1354.260 C 1161.540 1356.101, 1165.256 1358.933, 1168.181 1360.554 C 1172.902 1363.169, 1174.458 1363.500, 1182.021 1363.500 C 1189.652 1363.500, 1191.247 1363.153, 1197.294 1360.176 C 1209.378 1354.227, 1220.210 1342.089, 1229.966 1323.564 C 1232.821 1318.143, 1233.784 1315.384, 1233.069 1314.669 C 1232.500 1314.100, 1231.893 1313.828, 1231.721 1314.067 C 1231.549 1314.305, 1228.954 1318.309, 1225.954 1322.964 C 1214.606 1340.576, 1203.546 1348.642, 1191.898 1347.799 C 1185.245 1347.318, 1181.619 1345.201, 1178.593 1340.034 C 1173.978 1332.154, 1172.733 1315.614, 1175.531 1299.381 C 1177.708 1286.754, 1177.087 1287.603, 1185.248 1286.096 C 1207.179 1282.047, 1230.867 1272.420, 1240.740 1263.544 C 1250.784 1254.513, 1254.644 1241.306, 1250.104 1231.500 C 1246.416 1223.533, 1239.553 1219.350, 1228.475 1218.315 C 1202.044 1215.847, 1174.834 1238.027, 1158.871 1275.053 C 1154.209 1285.866, 1150.240 1300.561, 1149.329 1310.379 C 1148.680 1317.378, 1148.479 1317.787, 1137.584 1334.296 L 1126.500 1351.092 1121.518 1350.481 C 1118.778 1350.145, 1116.409 1349.742, 1116.254 1349.587 C 1116.098 1349.431, 1128.802 1303.362, 1144.485 1247.209 C 1160.168 1191.057, 1173 1144.639, 1173 1144.057 C 1173 1142.531, 1169.948 1142.813, 1146 1146.557 M 907.972 1188.250 C 906.259 1193.888, 903.318 1203.501, 901.437 1209.613 L 898.017 1220.726 893.369 1221.363 C 890.812 1221.713, 886.871 1222.006, 884.610 1222.014 C 877.583 1222.037, 876.471 1222.721, 874.760 1228.073 L 873.184 1233 883.659 1233 C 893.165 1233, 894.087 1233.162, 893.622 1234.750 C 893.340 1235.713, 885.191 1262.756, 875.513 1294.847 C 861.193 1342.329, 858.145 1353.470, 859.145 1354.675 C 862.854 1359.144, 879.446 1364.486, 887.301 1363.740 C 896.186 1362.896, 903.162 1355.792, 918.473 1332 C 926.520 1319.494, 927.794 1317, 926.130 1317 C 925.534 1317, 919.573 1324.313, 912.883 1333.250 C 906.193 1342.188, 900.394 1349.866, 899.996 1350.313 C 898.913 1351.533, 882 1349.937, 882 1348.616 C 882 1348.006, 890.178 1321.743, 900.174 1290.253 L 918.347 1233 935.135 1233 L 951.923 1233 953.021 1228.750 C 953.625 1226.412, 954.348 1223.713, 954.627 1222.750 C 955.096 1221.134, 953.877 1221, 938.667 1221 L 922.200 1221 926.705 1206.750 C 929.182 1198.912, 932.239 1189.237, 933.498 1185.250 L 935.788 1178 923.437 1178 L 911.086 1178 907.972 1188.250 M 1030.058 1218.468 C 1029.659 1219.585, 1027.120 1226.950, 1024.416 1234.833 L 1019.500 1249.165 1018.818 1239.054 C 1018.010 1227.068, 1016.753 1222.737, 1013.293 1220.016 C 1010.067 1217.478, 1005.929 1217.467, 997.855 1219.972 C 975.728 1226.840, 950.160 1256.855, 935.937 1292.658 C 928.440 1311.531, 925.025 1336.694, 928.389 1348.267 C 931.559 1359.171, 939.686 1364.828, 950.568 1363.705 C 963.835 1362.336, 975.032 1349.902, 995.996 1313.260 C 1000.119 1306.054, 1003.584 1300.251, 1003.697 1300.364 C 1003.810 1300.477, 1001.877 1306.852, 999.401 1314.531 C 993.619 1332.460, 991.090 1342.114, 990.345 1349.093 C 989.786 1354.326, 989.933 1354.857, 992.624 1357.360 C 996.150 1360.639, 1004.805 1364, 1009.722 1364 C 1015.236 1364, 1021.400 1360.478, 1027.305 1353.952 C 1034.167 1346.369, 1048.666 1322.266, 1047.229 1320.829 C 1046.189 1319.789, 1043.492 1323.272, 1030.209 1342.809 C 1025.592 1349.599, 1024.188 1351.018, 1022.530 1350.573 C 1021.413 1350.273, 1019.150 1350.014, 1017.500 1349.998 C 1015.850 1349.982, 1013.951 1349.620, 1013.279 1349.194 C 1011.768 1348.233, 1027.648 1295.595, 1043.346 1249.533 C 1049.150 1232.501, 1053.793 1218.460, 1053.664 1218.331 C 1053.535 1218.202, 1048.334 1217.722, 1042.107 1217.265 C 1031.246 1216.469, 1030.755 1216.518, 1030.058 1218.468 M 1279.310 1219.946 C 1270.900 1223.765, 1261.327 1234.767, 1250.555 1252.997 C 1247.500 1258.167, 1245 1262.758, 1245 1263.199 C 1245 1266.339, 1249.075 1261.893, 1258.523 1248.445 L 1269.451 1232.889 1275.975 1233.568 C 1279.564 1233.941, 1282.655 1234.383, 1282.843 1234.550 C 1283.576 1235.198, 1262.363 1310.769, 1254.831 1334.345 C 1250.460 1348.025, 1247.109 1359.443, 1247.385 1359.718 C 1247.991 1360.324, 1261.096 1361.895, 1266.058 1361.956 L 1269.615 1362 1275.865 1339.998 C 1280.916 1322.217, 1283.613 1314.784, 1289.920 1301.248 C 1310.766 1256.511, 1324.900 1231.248, 1330.847 1228.088 C 1331.901 1227.528, 1333.864 1227.757, 1336.265 1228.718 L 1340.029 1230.225 1336.654 1233.961 C 1328.606 1242.869, 1332.539 1255.564, 1343.945 1257.491 C 1349.448 1258.420, 1354.198 1256.630, 1358.313 1252.075 C 1364.468 1245.263, 1365.557 1236.574, 1361.293 1228.311 C 1356.404 1218.838, 1342.165 1215.304, 1331.273 1220.860 C 1321.018 1226.092, 1312.352 1240.817, 1292.500 1286.738 C 1289.828 1292.918, 1287.461 1297.794, 1287.239 1297.572 C 1287.017 1297.351, 1291.189 1283.581, 1296.508 1266.974 C 1303.939 1243.777, 1306.039 1236.020, 1305.567 1233.507 C 1304.111 1225.744, 1294.759 1217.972, 1286.934 1218.022 C 1285.045 1218.034, 1281.614 1218.900, 1279.310 1219.946 M 1216.747 1222.203 C 1209.128 1224.227, 1198.911 1236.148, 1190.655 1252.648 C 1186.701 1260.548, 1178.668 1283.001, 1179.498 1283.831 C 1179.787 1284.121, 1182.606 1283.555, 1185.762 1282.573 C 1202.261 1277.443, 1216.554 1265.751, 1223.495 1251.708 C 1229.688 1239.176, 1229.636 1224.978, 1223.385 1222.130 C 1222.022 1221.508, 1220.815 1221.047, 1220.703 1221.103 C 1220.591 1221.160, 1218.811 1221.655, 1216.747 1222.203 M 984.420 1232.885 C 977.186 1237.297, 969.827 1250.300, 963.696 1269.500 C 954.826 1297.284, 950.122 1333.633, 954.349 1341.736 C 956.185 1345.257, 959.457 1346.604, 963.628 1345.557 C 970.332 1343.875, 984.267 1326.479, 997.719 1303 C 1012.585 1277.053, 1016.783 1266.261, 1015.670 1256.860 C 1014.530 1247.235, 1007.047 1237.164, 998 1233.077 C 992.368 1230.532, 988.371 1230.476, 984.420 1232.885" stroke="none" fill="#000000" fill-rule="evenodd"/>
</svg>